{"title":"UEFA.C1.2013.Final.Dortmund.Vs.Munich.720p.50fps.ITV_HD.x264-Tha","uid":8509739,"size":2273854047,"categoryP":"other","categoryS":"other","magnet":"?xt=urn:btih:69e7cec2ae3a1393009f26583ba78709bdaf9e3d&amp;dn=UEFA.C1.2013.Final.Dortmund.Vs.Munich.720p.50fps.ITV_HD.x264-Tha&amp;tr=udp%3A%2F%2Ftracker.openbittorrent.com%3A80&amp;tr=udp%3A%2F%2Fopen.demonii.com%3A1337&amp;tr=udp%3A%2F%2Ftracker.coppersurfer.tk%3A6969&amp;tr=udp%3A%2F%2Fexodus.desync.com%3A6969","seeders":0,"leechers":0,"uploader":"minhthai911","files":1,"time":1369535474,"description":"Source: ITV HD (English-UK)\n\n\nComplete name                            : J:UEFA.C1.2013.Final.Dortmund.Vs.Munich.720p.50fps.ITV_HD.x264-ThaiSchumi.mkv\nFile size                                : 2.12 GiB\nDuration                                 : 1h 58mn\nOverall bit rate                         : 2 558 Kbps\n\nVideo\nFormat                                   : AVC\nFormat/Info                              : Advanced Video Codec\nFormat profile                           : &lt;a class=&quot;__cf_email__&quot; href=&quot;/cdn-cgi/l/email-protection&quot; data-cfemail=&quot;145c7d737c5458273a26&quot;&gt;[email&amp;#160;protected]&lt;/a&gt;&lt;script cf-hash='f9e31' type=&quot;text/javascript&quot;&gt;\n/* &lt;![CDATA[ */!function(){try{var t=&quot;currentScript&quot;in document?document.currentScript:function(){for(var t=document.getElementsByTagName(&quot;script&quot;),e=t.length;e--;)if(t[e].getAttribute(&quot;cf-hash&quot;))return t[e]}();if(t&amp;&amp;t.previousSibling){var e,r,n,i,c=t.previousSibling,a=c.getAttribute(&quot;data-cfemail&quot;);if(a){for(e=&quot;&quot;,r=parseInt(a.substr(0,2),16),n=2;a.length-n;n+=2)i=parseInt(a.substr(n,2),16)^r,e+=String.fromCharCode(i);e=document.createTextNode(e),c.parentNode.replaceChild(e,c)}}}catch(u){}}();/* ]]&gt; */&lt;/script&gt;\nFormat settings, CABAC                   : Yes\nFormat settings, ReFrames                : 4 frames\nCodec ID                                 : V_MPEG4/ISO/AVC\nDuration                                 : 1h 58mn\nBit rate                                 : 2 315 Kbps\nWidth                                    : 1 280 pixels\nHeight                                   : 720 pixels\nDisplay aspect ratio                     : 16:9\nFrame rate mode                          : Constant\nFrame rate                               : 50.000 fps\nColor space                              : YUV\nChroma subsampling                       : 4:2:0\nBit depth                                : 8 bits\nScan type                                : Progressive\nBits/(Pixel*Frame)                       : 0.050\nStream size                              : 1.92 GiB (91%)\n\nAudio\nID                                       : 2\nFormat                                   : AC-3\nFormat/Info                              : Audio Coding 3\nMode extension                           : CM (complete main)\nFormat settings, Endianness              : Big\nCodec ID                                 : A_AC3\nDuration                                 : 1h 58mn\nBit rate mode                            : Constant\nBit rate                                 : 192 Kbps\nChannel(s)                               : 2 channels\nChannel positions                        : Front: L R\nSampling rate                            : 48.0 KHz\nBit depth                                : 16 bits\nCompression mode                         : Lossy\nStream size                              : 163 MiB (8%)\n","torrent":{"xt":"urn:btih:69e7cec2ae3a1393009f26583ba78709bdaf9e3d","amp;dn":"UEFA.C1.2013.Final.Dortmund.Vs.Munich.720p.50fps.ITV_HD.x264-Tha","amp;tr":["udp%3A%2F%2Ftracker.openbittorrent.com%3A80","udp%3A%2F%2Fopen.demonii.com%3A1337","udp%3A%2F%2Ftracker.coppersurfer.tk%3A6969","udp%3A%2F%2Fexodus.desync.com%3A6969"],"infoHash":"69e7cec2ae3a1393009f26583ba78709bdaf9e3d","infoHashBuffer":{"type":"Buffer","data":[105,231,206,194,174,58,19,147,0,159,38,88,59,167,135,9,189,175,158,61]},"announce":[],"urlList":[]}}